<?xml version="1.0" encoding="UTF-8"?>
<svg width="599px" height="299px" viewBox="0 0 599 299" version="1.1" xmlns="http://www.w3.org/2000/svg" xmlns:xlink="http://www.w3.org/1999/xlink">
    <!-- Generator: sketchtool 64 (101010) - https://sketch.com -->
    <title>9EB07CCD-EBCC-44C9-9965-4B4B15D7F3AC@3x</title>
    <desc>Created with sketchtool.</desc>
    <defs>
        <polygon id="path-1" points="0.418688317 0.146857143 20.3424224 0.146857143 20.3424224 26.9783286 0.418688317 26.9783286"></polygon>
        <polygon id="path-3" points="0 0.466971429 50.1893234 0.466971429 50.1893234 42.9024 0 42.9024"></polygon>
        <polygon id="path-5" points="0 75.8531429 80.6616383 75.8531429 80.6616383 0.571428571 0 0.571428571"></polygon>
    </defs>
    <g id="Page-1" stroke="none" stroke-width="1" fill="none" fill-rule="evenodd">
        <g id="Partner-Page" transform="translate(-988.000000, -2053.000000)">
            <g id="Innovate" transform="translate(992.000000, 2057.000000)">
                <polygon id="Rectangle-Copy-11" stroke="#AED6F2" stroke-width="8" fill="#FFFFFF" points="0 1.75873205e-13 591 0 591 217.603692 532.82783 291 0 291"></polygon>
                <text id="Including-connected" font-family="ArialMT, Arial" font-size="18" font-weight="normal" line-spacing="35" fill="#4D4D4D">
                    <tspan x="236" y="155">Including connected cars, smart </tspan>
                    <tspan x="236" y="190">factories, and workflow automations. </tspan>
                </text>
                <text id="Innovate-with-IoT-an" font-family="Arial-BoldMT, Arial" font-size="24" font-weight="bold" line-spacing="35" fill="#2B3175">
                    <tspan x="236" y="64">Innovate with IoT </tspan>
                    <tspan x="236" y="99">and RPA solutions</tspan>
                </text>
                <g id="Group-7" transform="translate(47.000000, 44.000000)">
                    <circle id="Oval-Copy-3" stroke="#AED6F2" stroke-width="8" fill="#AED6F2" cx="70" cy="70" r="70"></circle>
                    <g id="Group-30" transform="translate(29.000000, 28.000000)">
                        <g id="Group-3" transform="translate(60.319149, 0.424571)">
                            <mask id="mask-2" fill="white">
                                <use xlink:href="#path-1"></use>
                            </mask>
                            <g id="Clip-2"></g>
                            <path d="M1.95531702,0.167028571 C1.2447,0.0407428571 0.566253191,0.5116 0.439295745,1.21788571 C0.312338298,1.92474286 0.785125532,2.60017143 1.49574255,2.72645714 C6.66940213,3.64531429 11.1755298,6.51617143 14.1840191,10.8104571 C17.1925085,15.1041714 18.3408702,20.3030286 17.4165511,25.4493143 C17.2895936,26.1561714 17.7629553,26.8316 18.4735723,26.9578857 C19.1853383,27.0841714 19.8632106,26.6121714 19.9895936,25.9064571 C21.0362745,20.0767429 19.7362532,14.1876 16.3285085,9.3236 C12.9207638,4.46017143 7.81604043,1.20817143 1.95531702,0.167028571" id="Fill-1" fill="#2B3175" mask="url(#mask-2)"></path>
                        </g>
                        <path d="M61.2906319,6.07125714 C60.5800149,5.94497143 59.9015681,6.41582857 59.7746106,7.12211429 C59.6476532,7.82897143 60.1204404,8.5044 60.8310574,8.63068571 C64.5340787,9.2884 67.759717,11.3432571 69.9133979,14.4169714 C72.0670787,17.4906857 72.8885681,21.2118286 72.2273553,24.8952571 C72.1003979,25.6021143 72.5731851,26.2775429 73.2838021,26.4038286 C73.9944191,26.5301143 74.672866,26.0592571 74.7998234,25.3524 C75.5839723,20.9855429 74.6102489,16.5735429 72.0573128,12.9301143 C69.5049511,9.28668571 65.6812915,6.85125714 61.2906319,6.07125714" id="Fill-4" fill="#2B3175"></path>
                        <path d="M60.3060511,11.5550857 C59.595434,11.4288 58.9169872,11.8996571 58.7900298,12.6059429 C58.6630723,13.3128 59.1358596,13.9882286 59.8464766,14.1145143 C62.0782851,14.5105143 64.0217106,15.7488 65.3200085,17.6013714 C66.6177319,19.4539429 67.1129234,21.6962286 66.7142426,23.9162286 C66.5872851,24.6230857 67.0606468,25.2979429 67.7706894,25.4242286 C68.4813064,25.5505143 69.1603277,25.0802286 69.2872851,24.3733714 C69.8083277,21.4699429 69.1609021,18.5368 67.4639234,16.1145143 C65.7669447,13.6928 63.2249234,12.0733714 60.3060511,11.5550857" id="Fill-6" fill="#2B3175"></path>
                        <path d="M60.0039957,24.7936 C58.6953574,25.7004571 56.8892298,25.3798857 55.9769745,24.0781714 C55.0652936,22.7770286 55.3881447,20.9798857 56.6962085,20.0730286 C58.0048468,19.1656 59.8109745,19.4867429 60.7232298,20.7878857 C61.6349106,22.0896 61.312634,23.8867429 60.0039957,24.7936" id="Fill-8" fill="#2B3175"></path>
                        <path d="M17.5662574,73.3569714 C14.7984702,73.3569714 12.5471298,71.1181143 12.5471298,68.3644 C12.5471298,65.6112571 14.7984702,63.3724 17.5662574,63.3724 C20.3340447,63.3724 22.5853851,65.6112571 22.5853851,68.3644 C22.5853851,71.1181143 20.3340447,73.3569714 17.5662574,73.3569714 M17.5662574,60.8758286 C13.4145766,60.8758286 10.0378532,64.2346857 10.0378532,68.3644 C10.0378532,72.4946857 13.4145766,75.8529714 17.5662574,75.8529714 C21.7185128,75.8529714 25.0946617,72.4946857 25.0946617,68.3644 C25.0946617,64.2346857 21.7179383,60.8758286 17.5662574,60.8758286" id="Fill-10" fill="#2B3175"></path>
                        <path d="M60.227234,73.3569714 C57.4594468,73.3569714 55.2081064,71.1181143 55.2081064,68.3644 C55.2081064,65.6112571 57.4594468,63.3724 60.227234,63.3724 C62.9950213,63.3724 65.2463617,65.6112571 65.2463617,68.3644 C65.2463617,71.1181143 62.9950213,73.3569714 60.227234,73.3569714 M60.227234,60.8758286 C56.0749787,60.8758286 52.6988298,64.2346857 52.6988298,68.3644 C52.6988298,72.4946857 56.0749787,75.8529714 60.227234,75.8529714 C64.3794894,75.8529714 67.7556383,72.4946857 67.7556383,68.3644 C67.7556383,64.2346857 64.3794894,60.8758286 60.227234,60.8758286" id="Fill-12" fill="#2B3175"></path>
                        <path d="M75.0845872,53.9601714 L63.7916936,36.4870286 C63.5607574,36.1298857 63.1632255,35.9138857 62.7363957,35.9138857 L48.9348,35.9138857 C48.2408426,35.9138857 47.6801617,36.4733143 47.6801617,37.1624571 L47.6801617,68.3647429 C47.6801617,69.0544571 48.2408426,69.6127429 48.9348,69.6127429 L53.9533532,69.6127429 L53.9533532,67.1161714 L50.1894383,67.1161714 L50.1894383,38.4104571 L62.0516298,38.4104571 L72.7746511,55.0024571 L72.7746511,67.1161714 L66.5008851,67.1161714 L66.5008851,69.6127429 L74.0292894,69.6127429 C74.7232468,69.6127429 75.2839277,69.0550286 75.2839277,68.3647429 L75.2839277,54.6356 C75.2839277,54.3973143 75.2149915,54.1613143 75.0845872,53.9601714" id="Fill-14" fill="#2B3175"></path>
                        <path d="M55.2083936,52.1393143 L55.2083936,43.4027429 L65.2460745,43.4027429 L65.2460745,40.9061714 L53.9537553,40.9061714 C53.2597979,40.9061714 52.699117,41.4656 52.699117,42.1541714 L52.699117,53.3873143 C52.699117,54.0776 53.2597979,54.6353143 53.9537553,54.6353143 L72.7744787,54.6353143 L72.7744787,52.1393143 L55.2083936,52.1393143 Z" id="Fill-16" fill="#2B3175"></path>
                        <g id="Group-20" transform="translate(0.000000, 26.710286)">
                            <mask id="mask-4" fill="white">
                                <use xlink:href="#path-3"></use>
                            </mask>
                            <g id="Clip-19"></g>
                            <path d="M48.9346851,0.466971429 L1.25440851,0.466971429 C0.562174468,0.466971429 -0.000229787234,1.0264 -0.000229787234,1.71497143 L-0.000229787234,41.6544 C-0.000229787234,42.3446857 0.562174468,42.9024 1.25440851,42.9024 L11.2926638,42.9024 L11.2926638,40.4064 L2.50962128,40.4064 L2.50962128,2.96297143 L47.6800468,2.96297143 L47.6800468,40.4064 L23.8401957,40.4064 L23.8401957,42.9024 L48.9346851,42.9024 C49.6286426,42.9024 50.1893234,42.3446857 50.1893234,41.6544 L50.1893234,1.71497143 C50.1893234,1.0264 49.6286426,0.466971429 48.9346851,0.466971429" id="Fill-18" fill="#2B3175" mask="url(#mask-4)"></path>
                        </g>
                        <mask id="mask-6" fill="white">
                            <use xlink:href="#path-5"></use>
                        </mask>
                        <g id="Clip-22"></g>
                        <polygon id="Fill-21" fill="#2B3175" mask="url(#mask-6)" points="1.2546383 64.6205714 8.78304255 64.6205714 8.78304255 62.124 1.2546383 62.124"></polygon>
                        <polygon id="Fill-23" fill="#2B3175" mask="url(#mask-6)" points="26.3497021 64.6205714 47.6802766 64.6205714 47.6802766 62.124 26.3497021 62.124"></polygon>
                        <polygon id="Fill-24" fill="#2B3175" mask="url(#mask-6)" points="69.0102766 64.6205714 74.0294043 64.6205714 74.0294043 62.124 69.0102766 62.124"></polygon>
                        <polygon id="Fill-25" fill="#2B3175" mask="url(#mask-6)" points="5.01912766 34.6662857 48.9349149 34.6662857 48.9349149 32.1697143 5.01912766 32.1697143"></polygon>
                        <polygon id="Fill-26" fill="#2B3175" mask="url(#mask-6)" points="16.3114468 69.6125714 18.8207234 69.6125714 18.8207234 67.1165714 16.3114468 67.1165714"></polygon>
                        <polygon id="Fill-27" fill="#2B3175" mask="url(#mask-6)" points="58.9725957 69.6125714 61.4818723 69.6125714 61.4818723 67.1165714 58.9725957 67.1165714"></polygon>
                        <polygon id="Fill-28" fill="#2B3175" mask="url(#mask-6)" points="5.01912766 24.6811429 22.5857872 24.6811429 22.5857872 22.1845714 5.01912766 22.1845714"></polygon>
                        <polygon id="Fill-29" fill="#2B3175" mask="url(#mask-6)" points="0 24.6811429 2.5092766 24.6811429 2.5092766 22.1845714 0 22.1845714"></polygon>
                    </g>
                </g>
            </g>
        </g>
    </g>
</svg>