<?xml version="1.0" encoding="UTF-8"?>
<svg width="36px" height="36px" viewBox="0 0 36 36" version="1.1" xmlns="http://www.w3.org/2000/svg" xmlns:xlink="http://www.w3.org/1999/xlink">
    <!-- Generator: sketchtool 64 (101010) - https://sketch.com -->
    <title>87396AE4-F0C2-4504-AC07-181C5BAC4ECD@3x</title>
    <desc>Created with sketchtool.</desc>
    <g id="Page-1" stroke="none" stroke-width="1" fill="none" fill-rule="evenodd">
        <g id="Partner-Landing-Page_mobile" transform="translate(-143.000000, -7925.000000)" fill="#FFFFFF" fill-rule="nonzero">
            <g id="Group-12" transform="translate(143.000000, 7919.000000)">
                <g id="instagram-(3)-copy" transform="translate(0.000000, 6.000000)">
                    <path d="M24.75,0 L11.25,0 C5.03775,0 0,5.03775 0,11.25 L0,24.75 C0,30.96225 5.03775,36 11.25,36 L24.75,36 C30.96225,36 36,30.96225 36,24.75 L36,11.25 C36,5.03775 30.96225,0 24.75,0 Z M32.625,24.75 C32.625,29.0925 29.0925,32.625 24.75,32.625 L11.25,32.625 C6.9075,32.625 3.375,29.0925 3.375,24.75 L3.375,11.25 C3.375,6.9075 6.9075,3.375 11.25,3.375 L24.75,3.375 C29.0925,3.375 32.625,6.9075 32.625,11.25 L32.625,24.75 Z" id="Shape"></path>
                    <path d="M18,9 C13.02975,9 9,13.02975 9,18 C9,22.97025 13.02975,27 18,27 C22.97025,27 27,22.97025 27,18 C27,13.02975 22.97025,9 18,9 Z M18,23.625 C14.8995,23.625 12.375,21.1005 12.375,18 C12.375,14.89725 14.8995,12.375 18,12.375 C21.1005,12.375 23.625,14.89725 23.625,18 C23.625,21.1005 21.1005,23.625 18,23.625 Z" id="Shape"></path>
                    <circle id="Oval" cx="27.675" cy="8.325" r="1.19925"></circle>
                </g>
            </g>
        </g>
    </g>
</svg>