<?xml version="1.0" encoding="UTF-8"?>
<svg width="312px" height="393px" viewBox="0 0 312 393" version="1.1" xmlns="http://www.w3.org/2000/svg" xmlns:xlink="http://www.w3.org/1999/xlink">
    <!-- Generator: sketchtool 64 (101010) - https://sketch.com -->
    <title>058F446E-4D45-487E-851C-01818E40D54B@3x</title>
    <desc>Created with sketchtool.</desc>
    <defs>
        <polygon id="path-1" points="0 0.214881176 47.6881243 0.214881176 47.6881243 29.2559048 0 29.2559048"></polygon>
    </defs>
    <g id="Page-1" stroke="none" stroke-width="1" fill="none" fill-rule="evenodd">
        <g id="Partner-Landing-Page_mobile" transform="translate(-32.000000, -2963.000000)">
            <g id="Group-10" transform="translate(36.000000, 2967.000000)">
                <polygon id="Rectangle-Copy-12" stroke="#AED6F2" stroke-width="8" fill="#FFFFFF" points="0 57.1497326 304 57.1497326 304 325.078937 247.849258 384.737968 0 384.737968"></polygon>
                <text id="Across-Telehouse-dat" font-family="ArialMT, Arial" font-size="16" font-weight="normal" line-spacing="25" fill="#4D4D4D">
                    <tspan x="43.9414063" y="233.839572">Across Telehouse datacenters </tspan>
                    <tspan x="46.1484375" y="258.839572">and cloud down to the device.</tspan>
                </text>
                <text id="Manage-last-mile-glo" font-family="Arial-BoldMT, Arial" font-size="18" font-weight="bold" line-spacing="25" fill="#2B3175">
                    <tspan x="50.4775391" y="161.86631">Manage last-mile global </tspan>
                    <tspan x="99.4853516" y="186.86631">connectivity</tspan>
                </text>
                <g id="Group-6-Copy" transform="translate(95.000000, 0.000000)">
                    <circle id="Oval-Copy-2" stroke="#AED6F2" stroke-width="8" fill="#AED6F2" cx="56.9" cy="56.9" r="56.9"></circle>
                    <g id="Group-24" transform="translate(27.637143, 12.192857)">
                        <g id="Group-5" transform="translate(0.000000, 0.119825)">
                            <mask id="mask-2" fill="white">
                                <use xlink:href="#path-1"></use>
                            </mask>
                            <g id="Clip-4"></g>
                            <path d="M7.63253253,15.9988742 C4.53148253,15.9988742 2.00813488,18.5222219 2.00813488,21.6232719 C2.00813488,24.7246566 4.53148253,27.2476695 7.63286724,27.2476695 L38.1215608,27.2476695 C42.2893184,27.2476695 45.679889,23.8570989 45.679889,19.6893413 C45.679889,15.814786 42.777989,12.5845395 38.9298755,12.1758636 C38.442209,12.1239842 38.0629872,11.7273578 38.0335331,11.2376831 C37.7286161,6.18262012 33.5193549,2.22304953 28.4509037,2.22304953 C24.9779955,2.22304953 21.7651537,4.10945188 20.0665214,7.14556894 C19.8760737,7.48629953 19.5055543,7.68678835 19.1162914,7.65666482 C18.8361425,7.63624776 18.6045261,7.62654129 18.3862978,7.62654129 C13.7877737,7.62654129 9.85698782,10.7533636 8.82810194,15.2307242 C8.72032665,15.6989778 8.29826253,16.0303366 7.81561665,16.0092501 C7.77344371,16.0079113 7.73194018,16.0052336 7.69010194,16.0022213 C7.67102371,16.0008825 7.65194547,15.9988742 7.63253253,15.9988742 M38.1215608,29.2559048 L7.63286724,29.2559048 C3.42394076,29.2559048 -0.000100411765,25.8318636 -0.000100411765,21.6232719 C-0.000100411765,17.6024501 3.12571782,14.2975642 7.07457782,14.011056 C8.57004371,9.03096718 13.1136761,5.618306 18.3862978,5.618306 C18.4686355,5.618306 18.5519772,5.61931012 18.6376619,5.62165306 C20.7593625,2.27124718 24.4632178,0.214814235 28.4509037,0.214814235 C34.3042402,0.214814235 39.2100243,4.582726 39.9601002,10.3008413 C44.4193866,11.1633784 47.6881243,15.063706 47.6881243,19.6893413 C47.6881243,24.9646407 43.3968602,29.2559048 38.1215608,29.2559048" id="Fill-3" fill="#2B3175" mask="url(#mask-2)"></path>
                        </g>
                        <polygon id="Fill-6" fill="#AED6F2" points="30.0686376 31.2394388 61.5112429 31.2394388 61.5112429 25.2656082 30.0686376 25.2656082"></polygon>
                        <path d="M31.0155206,30.2925559 L60.5646947,30.2925559 L60.5646947,26.2121565 L31.0155206,26.2121565 L31.0155206,30.2925559 Z M61.5112429,32.1859871 L30.0686376,32.1859871 C29.5458271,32.1859871 29.1220894,31.7622494 29.1220894,31.2394388 L29.1220894,25.2652735 C29.1220894,24.7424629 29.5458271,24.3187253 30.0686376,24.3187253 L61.5112429,24.3187253 C62.0340535,24.3187253 62.4577912,24.7424629 62.4577912,25.2652735 L62.4577912,31.2394388 C62.4577912,31.7622494 62.0340535,32.1859871 61.5112429,32.1859871 L61.5112429,32.1859871 Z" id="Fill-8" fill="#2B3175"></path>
                        <path d="M33.2306041,27.4701151 C32.8497088,27.4701151 32.5397712,27.7800527 32.5397712,28.160948 C32.5397712,28.5418433 32.8497088,28.8517809 33.2306041,28.8517809 C33.6114994,28.8517809 33.9214371,28.5418433 33.9214371,28.160948 C33.9214371,27.7800527 33.6114994,27.4701151 33.2306041,27.4701151 M33.2306041,29.1633921 C32.6780047,29.1633921 32.22816,28.7135474 32.22816,28.160948 C32.22816,27.6083486 32.6780047,27.1585039 33.2306041,27.1585039 C33.7832035,27.1585039 34.2330482,27.6083486 34.2330482,28.160948 C34.2330482,28.7135474 33.7832035,29.1633921 33.2306041,29.1633921 M35.8379629,27.4701151 C35.4570676,27.4701151 35.14713,27.7800527 35.14713,28.160948 C35.14713,28.5418433 35.4570676,28.8517809 35.8379629,28.8517809 C36.2188582,28.8517809 36.5287959,28.5418433 36.5287959,28.160948 C36.5287959,27.7800527 36.2188582,27.4701151 35.8379629,27.4701151 M35.8379629,29.1633921 C35.2853635,29.1633921 34.8355188,28.7135474 34.8355188,28.160948 C34.8355188,27.6083486 35.2853635,27.1585039 35.8379629,27.1585039 C36.3905624,27.1585039 36.8400724,27.6083486 36.8400724,28.160948 C36.8400724,28.7135474 36.3905624,29.1633921 35.8379629,29.1633921" id="Fill-10" fill="#2B3175"></path>
                        <polygon id="Fill-11" fill="#AED6F2" points="30.0686376 21.2504765 61.5112429 21.2504765 61.5112429 15.2766459 30.0686376 15.2766459"></polygon>
                        <path d="M31.0155206,20.3039282 L60.5646947,20.3039282 L60.5646947,16.2235288 L31.0155206,16.2235288 L31.0155206,20.3039282 Z M61.5112429,22.1973594 L30.0686376,22.1973594 C29.5458271,22.1973594 29.1220894,21.7732871 29.1220894,21.2504765 L29.1220894,15.2766459 C29.1220894,14.7538353 29.5458271,14.3300976 30.0686376,14.3300976 L61.5112429,14.3300976 C62.0340535,14.3300976 62.4577912,14.7538353 62.4577912,15.2766459 L62.4577912,21.2504765 C62.4577912,21.7732871 62.0340535,22.1973594 61.5112429,22.1973594 L61.5112429,22.1973594 Z" id="Fill-12" fill="#2B3175"></path>
                        <path d="M33.2306041,17.481387 C32.8497088,17.481387 32.5397712,17.7913246 32.5397712,18.1722199 C32.5397712,18.5531152 32.8497088,18.8630529 33.2306041,18.8630529 C33.6114994,18.8630529 33.9214371,18.5531152 33.9214371,18.1722199 C33.9214371,17.7913246 33.6114994,17.481387 33.2306041,17.481387 M33.2306041,19.1746641 C32.6780047,19.1746641 32.22816,18.7248194 32.22816,18.1722199 C32.22816,17.6196205 32.6780047,17.1697758 33.2306041,17.1697758 C33.7832035,17.1697758 34.2330482,17.6196205 34.2330482,18.1722199 C34.2330482,18.7248194 33.7832035,19.1746641 33.2306041,19.1746641 M35.8379629,17.481387 C35.4570676,17.481387 35.14713,17.7913246 35.14713,18.1722199 C35.14713,18.5531152 35.4570676,18.8630529 35.8379629,18.8630529 C36.2188582,18.8630529 36.5287959,18.5531152 36.5287959,18.1722199 C36.5287959,17.7913246 36.2188582,17.481387 35.8379629,17.481387 M35.8379629,19.1746641 C35.2853635,19.1746641 34.8355188,18.7248194 34.8355188,18.1722199 C34.8355188,17.6196205 35.2853635,17.1697758 35.8379629,17.1697758 C36.3905624,17.1697758 36.8400724,17.6196205 36.8400724,18.1722199 C36.8400724,18.7248194 36.3905624,19.1746641 35.8379629,19.1746641" id="Fill-14" fill="#2B3175"></path>
                        <polygon id="Fill-15" fill="#AED6F2" points="30.0686376 41.2280665 61.5112429 41.2280665 61.5112429 35.2542359 30.0686376 35.2542359"></polygon>
                        <path d="M31.0155206,40.2811835 L60.5646947,40.2811835 L60.5646947,36.2007841 L31.0155206,36.2007841 L31.0155206,40.2811835 Z M61.5112429,42.1746147 L30.0686376,42.1746147 C29.5458271,42.1746147 29.1220894,41.7508771 29.1220894,41.2280665 L29.1220894,35.2542359 C29.1220894,34.7314253 29.5458271,34.3073529 30.0686376,34.3073529 L61.5112429,34.3073529 C62.0340535,34.3073529 62.4577912,34.7314253 62.4577912,35.2542359 L62.4577912,41.2280665 C62.4577912,41.7508771 62.0340535,42.1746147 61.5112429,42.1746147 L61.5112429,42.1746147 Z" id="Fill-16" fill="#2B3175"></path>
                        <path d="M33.2306041,37.4588096 C32.8497088,37.4588096 32.5397712,37.7687473 32.5397712,38.1496426 C32.5397712,38.5305379 32.8497088,38.8404755 33.2306041,38.8404755 C33.6114994,38.8404755 33.9214371,38.5305379 33.9214371,38.1496426 C33.9214371,37.7687473 33.6114994,37.4588096 33.2306041,37.4588096 M33.2306041,39.1520867 C32.6780047,39.1520867 32.22816,38.702242 32.22816,38.1496426 C32.22816,37.5970432 32.6780047,37.1471985 33.2306041,37.1471985 C33.7832035,37.1471985 34.2330482,37.5970432 34.2330482,38.1496426 C34.2330482,38.702242 33.7832035,39.1520867 33.2306041,39.1520867 M35.8379629,37.4588096 C35.4570676,37.4588096 35.14713,37.7687473 35.14713,38.1496426 C35.14713,38.5305379 35.4570676,38.8404755 35.8379629,38.8404755 C36.2188582,38.8404755 36.5287959,38.5305379 36.5287959,38.1496426 C36.5287959,37.7687473 36.2188582,37.4588096 35.8379629,37.4588096 M35.8379629,39.1520867 C35.2853635,39.1520867 34.8355188,38.702242 34.8355188,38.1496426 C34.8355188,37.5970432 35.2853635,37.1471985 35.8379629,37.1471985 C36.3905624,37.1471985 36.8400724,37.5970432 36.8400724,38.1496426 C36.8400724,38.702242 36.3905624,39.1520867 35.8379629,39.1520867" id="Fill-18" fill="#2B3175"></path>
                        <path d="M26.0488869,57.3908127 C25.7851387,57.3908127 25.5213905,57.3021156 25.3051705,57.1247215 L15.3941946,48.9833356 C14.8944787,48.5726515 14.8221822,47.8346251 15.2328664,47.3345745 C15.6435505,46.8345239 16.3815769,46.7622274 16.8816275,47.1729115 L26.0488869,54.7034592 L35.2161464,47.1729115 C35.7161969,46.7628968 36.4542234,46.8348586 36.8649075,47.3345745 C37.2755916,47.8346251 37.2032952,48.5726515 36.7035793,48.9833356 L26.7926034,57.1247215 C26.5763834,57.3021156 26.3126352,57.3908127 26.0488869,57.3908127" id="Fill-19" fill="#2B3175"></path>
                        <path d="M17.3916524,89.4862953 L34.7059876,89.4862953 L34.7059876,64.0834576 L17.3916524,64.0834576 L17.3916524,89.4862953 Z M35.8774582,91.8292365 L16.2201818,91.8292365 C15.5731953,91.8292365 15.0487112,91.3047524 15.0487112,90.6577659 L15.0487112,62.9119871 C15.0487112,62.2650006 15.5731953,61.7405165 16.2201818,61.7405165 L35.8774582,61.7405165 C36.5247794,61.7405165 37.0489288,62.2650006 37.0489288,62.9119871 L37.0489288,90.6577659 C37.0489288,91.3047524 36.5247794,91.8292365 35.8774582,91.8292365 L35.8774582,91.8292365 Z" id="Fill-20" fill="#2B3175"></path>
                        <path d="M35.3101652,69.8787226 L16.7875417,69.8787226 C16.1405552,69.8787226 15.6160711,69.3542385 15.6160711,68.7072521 C15.6160711,68.0602656 16.1405552,67.5357815 16.7875417,67.5357815 L35.3101652,67.5357815 C35.9571517,67.5357815 36.4816358,68.0602656 36.4816358,68.7072521 C36.4816358,69.3542385 35.9571517,69.8787226 35.3101652,69.8787226" id="Fill-21" fill="#2B3175"></path>
                        <path d="M35.2929279,84.4954624 L16.8047791,84.4954624 C16.1577926,84.4954624 15.6333085,83.9709783 15.6333085,83.3239918 C15.6333085,82.6770054 16.1577926,82.1525212 16.8047791,82.1525212 L35.2929279,82.1525212 C35.9399144,82.1525212 36.4643985,82.6770054 36.4643985,83.3239918 C36.4643985,83.9709783 35.9399144,84.4954624 35.2929279,84.4954624" id="Fill-22" fill="#2B3175"></path>
                        <path d="M27.0760324,87.0359805 C27.0760324,87.6033069 26.6161465,88.0631928 26.04882,88.0631928 C25.4814935,88.0631928 25.0219424,87.6033069 25.0219424,87.0359805 C25.0219424,86.468654 25.4814935,86.0091028 26.04882,86.0091028 C26.6161465,86.0091028 27.0760324,86.468654 27.0760324,87.0359805" id="Fill-23" fill="#2B3175"></path>
                    </g>
                </g>
            </g>
        </g>
    </g>
</svg>