<?xml version="1.0" encoding="UTF-8"?>
<svg width="312px" height="393px" viewBox="0 0 312 393" version="1.1" xmlns="http://www.w3.org/2000/svg" xmlns:xlink="http://www.w3.org/1999/xlink">
    <!-- Generator: sketchtool 64 (101010) - https://sketch.com -->
    <title>CE2656E9-C609-41CE-9605-B285C3BB444D@3x</title>
    <desc>Created with sketchtool.</desc>
    <defs>
        <polygon id="path-1" points="0.0762394971 0.258475566 53.4560869 0.258475566 53.4560869 37.4563791 0.0762394971 37.4563791"></polygon>
    </defs>
    <g id="Page-1" stroke="none" stroke-width="1" fill="none" fill-rule="evenodd">
        <g id="Partner-Landing-Page_mobile" transform="translate(-32.000000, -2546.000000)">
            <g id="Group-4" transform="translate(36.000000, 2550.000000)">
                <polygon id="Rectangle-Copy-11" stroke="#AED6F2" stroke-width="8" fill="#FFFFFF" points="0 57.1497326 304 57.1497326 304 325.078937 247.849258 384.737968 0 384.737968"></polygon>
                <text id="Including-internet-p" font-family="ArialMT, Arial" font-size="16" font-weight="normal" line-spacing="25" fill="#4D4D4D">
                    <tspan x="59.9375" y="233.839572">Including internet peering, </tspan>
                    <tspan x="62.6445313" y="258.839572">SD-WAN, global IP-VPN, </tspan>
                    <tspan x="63.5" y="283.839572">transoceanic backbones.</tspan>
                </text>
                <text id="Build-global,-carrie" font-family="Arial-BoldMT, Arial" font-size="18" font-weight="bold" line-spacing="25" fill="#2B3175">
                    <tspan x="98.0043945" y="161.86631">Build global, </tspan>
                    <tspan x="54.4589844" y="186.86631">carrier-grade networks</tspan>
                </text>
                <g id="Group-2-Copy" transform="translate(95.000000, 0.000000)">
                    <circle id="Oval-Copy" stroke="#AED6F2" stroke-width="8" fill="#AED6F2" cx="56.9" cy="56.9" r="56.9"></circle>
                    <g id="Group-8" transform="translate(24.385714, 19.508571)">
                        <path d="M51.6373157,51.6518301 L51.6323736,51.6518301 C49.9842895,50.6457081 48.2368417,49.812562 46.4176024,49.1651376 C47.4216435,45.6619184 47.9671032,42.0434685 48.0401953,38.4000477 L56.4351237,38.4000477 C56.1929573,43.1968153 54.5219832,47.8117629 51.6373157,51.6518301 L51.6373157,51.6518301 Z M50.0940577,53.5256934 C49.5556211,54.107309 48.9883119,54.6553698 48.4007137,55.1755984 C48.3585752,55.2140953 48.3187777,55.2538928 48.2805409,55.2957712 C47.7132316,55.7923293 47.1217317,56.2574137 46.5148851,56.6936253 C46.4404924,56.7477291 46.3681807,56.8031334 46.2924874,56.8559366 C45.6989066,57.275501 45.0847768,57.6635915 44.4573811,58.0254105 C44.3624394,58.0792541 44.2674977,58.135959 44.172556,58.1887622 C43.549062,58.5373154 42.9104815,58.8577762 42.2565541,59.1504048 L41.9394748,59.289826 C41.5271937,59.4664436 41.0980051,59.6118475 40.6787009,59.7705172 C42.8969555,57.3652404 44.5962821,54.5294745 45.6710744,51.4390566 C47.215633,51.9886781 48.7047873,52.6837035 50.1179882,53.5147686 L50.0940577,53.5256934 Z M33.6524938,61.1262329 L33.6524938,49.2938941 C36.9387777,49.3659458 40.2037322,49.8455965 43.3719242,50.7216614 L43.3719242,50.7227019 C41.2025711,56.4917766 37.686086,60.4579993 33.6524938,61.1262329 L33.6524938,61.1262329 Z M33.6524938,38.4000477 L45.6375196,38.4000477 C45.5639073,41.7971403 45.0566844,45.1705625 44.1280764,48.4391586 C40.7151169,47.4850594 37.1955105,46.9658713 33.6524938,46.8935595 L33.6524938,38.4000477 Z M33.6524938,27.5387156 C37.1973313,27.4565195 40.7174579,26.9261465 44.1291169,25.9606022 C45.0574648,29.2278978 45.5644275,32.6005396 45.6375196,35.9960715 L33.6524938,35.9960715 L33.6524938,27.5387156 Z M33.6524938,13.2711869 C37.686086,13.9357789 41.2025711,17.9009611 43.3719242,23.6744578 C40.2037322,24.5510429 36.9390378,25.0304336 33.6524938,25.1024852 L33.6524938,13.2711869 Z M41.9405153,15.117218 L42.2578547,15.2529977 C42.9091809,15.5440656 43.5488019,15.8624454 44.1712554,16.2146402 C44.2674977,16.268744 44.3624394,16.3251888 44.4584216,16.380333 C45.0858172,16.7411115 45.6989066,17.129202 46.2924874,17.5474658 C46.3681807,17.600269 46.4415329,17.6580144 46.5161857,17.7121181 C47.1170497,18.1496304 47.7179137,18.6123737 48.2815813,19.1086717 C48.3237199,19.1458681 48.3635173,19.1856656 48.4017541,19.2228619 C48.9919535,19.7469922 49.5616037,20.297394 50.1036819,20.8826512 C48.6946428,21.7118955 47.2106908,22.4064006 45.6710744,22.9570626 C44.5955018,19.8705465 42.8964353,17.0384221 40.6797413,14.6365268 C41.1029473,14.7905145 41.5282341,14.9359184 41.9405153,15.117218 L41.9405153,15.117218 Z M51.6373157,22.7442891 C54.5219832,26.5843563 56.1926972,31.199304 56.4351237,35.9960715 L48.0401953,35.9960715 C47.9686639,32.3531709 47.4247649,28.734461 46.4222844,25.2309817 C48.2412636,24.583037 49.9887114,23.7496308 51.6373157,22.7442891 L51.6373157,22.7442891 Z M31.2487777,25.1048262 C27.9624938,25.0317341 24.6980595,24.5515632 21.5301276,23.674978 C23.6934981,17.9072038 27.2157057,13.9417616 31.2487777,13.273528 L31.2487777,25.1048262 Z M31.2487777,35.9960715 L19.2637519,35.9960715 C19.336844,32.6005396 19.8438067,29.2278978 20.7718945,25.9606022 C24.1835535,26.9266667 27.7039402,27.4567796 31.2487777,27.5387156 L31.2487777,35.9960715 Z M31.2487777,46.892519 C27.705761,46.965351 24.1861546,47.4847993 20.7731951,48.4381181 C19.8445871,45.1700422 19.3373642,41.7966201 19.2637519,38.4000477 L31.2487777,38.4000477 L31.2487777,46.892519 Z M31.2487777,61.1249323 C27.2151855,60.4603403 23.6984403,56.4954182 21.5290872,50.7216614 C24.6975393,49.8453364 27.9622337,49.3656857 31.2487777,49.2938941 L31.2487777,61.1249323 Z M22.9571146,59.2776006 C22.8548897,59.2367627 22.7503237,59.1922832 22.6467983,59.1444221 C21.9931311,58.8523138 21.351169,58.5326333 20.7240335,58.1827796 C20.6301322,58.1310169 20.5388321,58.0758726 20.4451909,58.0230694 C19.8151941,57.6622909 19.1987233,57.2705588 18.6015009,56.8486534 C18.5304897,56.7981913 18.4607791,56.7453881 18.3897679,56.6936253 C17.7792796,56.2537721 17.1880399,55.7873872 16.614748,55.2887481 C16.5762511,55.2538928 16.5390547,55.2166964 16.4945752,55.1828816 C15.9020348,54.6564102 15.3297834,54.1013264 14.7866648,53.5171097 C16.1990853,52.6860445 17.6866789,51.9902388 19.229937,51.4390566 C20.3055096,54.5247924 22.0040559,57.3566566 24.2202296,59.758552 C23.7970236,59.6045643 23.3704362,59.4591604 22.9571146,59.2776006 L22.9571146,59.2776006 Z M13.2639557,51.6518301 C10.3792883,47.8117629 8.70831415,43.1968153 8.46588763,38.4000477 L16.8610762,38.4000477 C16.9323475,42.0432084 17.4762465,45.6619184 18.4787269,49.1651376 C16.6600079,49.8130822 14.9123,50.6464884 13.2639557,51.6518301 L13.2639557,51.6518301 Z M13.2639557,22.7442891 C14.9120399,23.7504112 16.6597477,24.5835572 18.4787269,25.2309817 C17.4765066,28.734461 16.9326076,32.3531709 16.8610762,35.9960715 L8.46588763,35.9960715 C8.70805403,31.199304 10.3790282,26.5843563 13.2639557,22.7442891 L13.2639557,22.7442891 Z M14.8022716,20.8706859 C15.3394076,20.2914114 15.9043759,19.744391 16.4849509,19.2252029 C16.5294305,19.1856656 16.5726095,19.1424866 16.6183896,19.1050301 C17.1820572,18.6110731 17.770956,18.1509309 18.374161,17.7144592 C18.4524554,17.6580144 18.5281487,17.5942864 18.6074835,17.5438242 C19.1987233,17.1279014 19.8076508,16.7405913 20.4342661,16.3816336 C20.5315489,16.3251888 20.6290917,16.2614608 20.7274149,16.212039 C21.3493482,15.8645264 21.9853276,15.5458864 22.6361336,15.2566393 L22.9594556,15.114877 C23.3717368,14.9382594 23.8006652,14.7928555 24.218929,14.6341858 C22.0027553,17.0368614 20.3047292,19.8700262 19.229937,22.9570626 C17.6874593,22.407181 16.2003859,21.7121556 14.7890058,20.8816107 L14.8022716,20.8706859 Z M49.2588307,16.7871517 C43.3466931,11.9175522 35.6140156,9.84912338 28.0600367,11.1174406 C27.198278,11.261544 26.3487448,11.4540285 25.5109167,11.6811083 C25.2705711,11.7458768 25.0302255,11.816888 24.7898799,11.8878992 C19.7964659,13.3957817 15.3612572,16.3475586 12.0427192,20.3717867 C2.74987621,31.6365561 4.34827849,48.3018182 15.6130479,57.5944011 C20.3525903,61.504439 26.306086,63.6417981 32.4505057,63.6391994 C34.4078657,63.6399773 36.3589829,63.4243426 38.268742,62.9961945 C38.8891146,62.8570333 39.4996028,62.6874388 40.1064495,62.5048386 C45.1009039,60.9985168 49.5379333,58.0477803 52.8582922,54.0243325 C62.1472335,42.7475979 60.5355653,26.076093 49.2588307,16.7871517 L49.2588307,16.7871517 Z" id="Fill-1" fill="#2B3175"></path>
                        <g id="Group-5" transform="translate(11.445029, 36.939610)">
                            <mask id="mask-2" fill="white">
                                <use xlink:href="#path-1"></use>
                            </mask>
                            <g id="Clip-4"></g>
                            <path d="M51.0523968,0.258475566 C51.0339286,16.8451832 37.5922628,30.2868491 21.0055552,30.3053172 L4.67688087,30.3053172 L7.7235995,27.257298 L6.02427287,25.5579713 L0.0762394971,31.5073053 L6.02427287,37.4563791 L7.7235995,35.7570525 L4.67688087,32.7090333 L21.0055552,32.7090333 C38.9193659,32.6892646 53.4363442,18.1722863 53.4561129,0.258475566 L51.0523968,0.258475566 Z" id="Fill-3" fill="#2B3175" mask="url(#mask-2)"></path>
                        </g>
                        <path d="M45.0281499,7.80342857e-05 L43.3288233,1.69966478 L46.3755419,4.74742386 L32.4505837,4.74742386 C14.536773,4.76745266 0.0197946971,19.2844309 2.60114286e-05,37.1979816 L2.40374213,37.1979816 C2.42221024,20.6112739 15.8638761,7.16960809 32.4505837,7.15113998 L46.3755419,7.15113998 L43.3288233,10.1991592 L45.0281499,11.8987459 L50.9761833,5.94941198 L45.0281499,7.80342857e-05 Z" id="Fill-6" fill="#2B3175"></path>
                    </g>
                </g>
            </g>
        </g>
    </g>
</svg>