<?xml version="1.0" encoding="UTF-8"?>
<svg width="342px" height="141px" viewBox="0 0 342 141" version="1.1" xmlns="http://www.w3.org/2000/svg" xmlns:xlink="http://www.w3.org/1999/xlink">
    <!-- Generator: sketchtool 64 (101010) - https://sketch.com -->
    <title>CDC3F588-58DF-4DDB-B604-E267B05476F9@3x</title>
    <desc>Created with sketchtool.</desc>
    <defs>
        <rect id="path-1" x="0" y="0" width="342" height="140"></rect>
    </defs>
    <g id="Page-1" stroke="none" stroke-width="1" fill="none" fill-rule="evenodd">
        <g id="Partner-Landing-Page_mobile" transform="translate(-33.000000, -6111.000000)">
            <g id="illustration-copy" transform="translate(33.000000, 6111.000000)">
                <g id="Group-101" transform="translate(0.000000, 0.596998)">
                    <mask id="mask-2" fill="white">
                        <use xlink:href="#path-1"></use>
                    </mask>
                    <use id="Mask" fill="#FFFFFF" xlink:href="#path-1"></use>
                    <line x1="280.49155" y1="34.251087" x2="32.0313525" y2="34.251087" id="Fill-1" fill="#FFFFFF" mask="url(#mask-2)"></line>
                    <path d="M280.49155,27.905653 C283.981787,27.905653 286.811184,30.7466006 286.811184,34.251087 C286.811184,37.7016582 284.068176,40.5089501 280.65216,40.5945116 L280.49155,40.5965209 L32.0313525,40.5965209 C28.5411151,40.5965209 25.7117186,37.7555734 25.7117186,34.251087 C25.7117186,30.8005158 28.4547264,27.9932238 31.8707417,27.9076623 L32.0313525,27.905653 L280.49155,27.905653 Z" id="Stroke-3" fill="#AED6F2" fill-rule="nonzero" opacity="0.287109375" mask="url(#mask-2)"></path>
                    <line x1="205.465923" y1="50.2201318" x2="13.6834577" y2="50.2201318" id="Fill-5" fill="#FFFFFF" mask="url(#mask-2)"></line>
                    <path d="M205.465923,43.8746978 C208.95616,43.8746978 211.785557,46.7156453 211.785557,50.2201318 C211.785557,53.670703 209.042549,56.4779949 205.626534,56.5635564 L205.465923,56.5655657 L13.6834577,56.5655657 C10.1932203,56.5655657 7.36382386,53.7246182 7.36382386,50.2201318 C7.36382386,46.7695605 10.1068316,43.9622686 13.522847,43.8767071 L13.6834577,43.8746978 L205.465923,43.8746978 Z" id="Stroke-7" fill="#AED6F2" fill-rule="nonzero" opacity="0.287109375" mask="url(#mask-2)"></path>
                    <line x1="403.92075" y1="88.7539527" x2="142.865711" y2="88.7539527" id="Fill-9" fill="#FFFFFF" mask="url(#mask-2)"></line>
                    <path d="M403.92075,82.4085187 C407.410987,82.4085187 410.240384,85.2494663 410.240384,88.7539527 C410.240384,92.2045239 407.497376,95.0118158 404.081361,95.0973773 L403.92075,95.0993866 L142.865711,95.0993866 C139.375473,95.0993866 136.546077,92.2584391 136.546077,88.7539527 C136.546077,85.3033815 139.289085,82.4960895 142.7051,82.410528 L142.865711,82.4085187 L403.92075,82.4085187 Z" id="Stroke-11" fill="#AED6F2" fill-rule="nonzero" opacity="0.287109375" mask="url(#mask-2)"></path>
                    <line x1="366.580822" y1="111.666006" x2="105.525782" y2="111.666006" id="Fill-13" fill="#FFFFFF" mask="url(#mask-2)"></line>
                    <path d="M366.580822,105.320572 C370.071059,105.320572 372.900456,108.161519 372.900456,111.666006 C372.900456,115.116577 370.157448,117.923869 366.741432,118.00943 L366.580822,118.011439 L105.525782,118.011439 C102.035545,118.011439 99.2061486,115.170492 99.2061486,111.666006 C99.2061486,108.215434 101.949156,105.408142 105.365172,105.322581 L105.525782,105.320572 L366.580822,105.320572 Z" id="Stroke-15" fill="#AED6F2" fill-rule="nonzero" opacity="0.287109375" mask="url(#mask-2)"></path>
                    <path d="M125.68718,101.352082 C125.68718,89.4601524 135.288279,79.8201717 147.131857,79.8201717 C158.97512,79.8201717 168.576219,89.4601524 168.576219,101.352082 C168.576219,113.244011 158.97512,122.884307 147.131857,122.884307 C135.288279,122.884307 125.68718,113.244011 125.68718,101.352082" id="Fill-17" fill="#FFFFFF" mask="url(#mask-2)"></path>
                    <path d="M147.131857,78.4980962 C134.561032,78.4980962 124.37048,88.7300445 124.37048,101.352082 C124.37048,113.974173 134.561086,124.206382 147.131857,124.206382 C159.702365,124.206382 169.892919,113.974121 169.892919,101.352082 C169.892919,88.7300963 159.702419,78.4980962 147.131857,78.4980962 Z M147.131857,81.1422472 C158.248038,81.1422472 167.259519,90.1904265 167.259519,101.352082 C167.259519,112.513803 158.247972,121.562231 147.131857,121.562231 C136.015473,121.562231 127.00388,112.513849 127.00388,101.352082 C127.00388,90.1903807 136.015407,81.1422472 147.131857,81.1422472 Z" id="Stroke-19" fill="#2B3175" fill-rule="nonzero" mask="url(#mask-2)"></path>
                    <path d="M55.6733055,61.1646329 C55.6733055,47.6914477 66.5509263,36.7694187 79.969016,36.7694187 C93.3874201,36.7694187 104.265041,47.6914477 104.265041,61.1646329 C104.265041,74.6378181 93.3874201,85.5595314 79.969016,85.5595314 C66.5509263,85.5595314 55.6733055,74.6378181 55.6733055,61.1646329" id="Fill-21" fill="#FFFFFF" mask="url(#mask-2)"></path>
                    <path d="M79.969016,35.4473432 C65.8236817,35.4473432 54.3566055,46.961337 54.3566055,61.1646329 C54.3566055,75.3678738 65.823627,86.8816069 79.969016,86.8816069 C94.1146682,86.8816069 105.581741,75.3679253 105.581741,61.1646329 C105.581741,46.9612856 94.1146135,35.4473432 79.969016,35.4473432 Z M79.969016,38.0914942 C92.6602268,38.0914942 102.948341,48.4216098 102.948341,61.1646329 C102.948341,73.9075905 92.660292,84.237456 79.969016,84.237456 C67.2780084,84.237456 56.9900055,73.9075443 56.9900055,61.1646329 C56.9900055,48.421656 67.2780736,38.0914942 79.969016,38.0914942 Z" id="Stroke-23" fill="#2B3175" fill-rule="nonzero" mask="url(#mask-2)"></path>
                    <path d="M148.867372,28.1718677 C148.867372,17.6604603 157.353834,9.13935237 167.822503,9.13935237 C178.290857,9.13935237 186.777633,17.6604603 186.777633,28.1718677 C186.777633,38.6832751 178.290857,47.204383 167.822503,47.204383 C157.353834,47.204383 148.867372,38.6832751 148.867372,28.1718677" id="Fill-25" fill="#FFFFFF" mask="url(#mask-2)"></path>
                    <path d="M167.822503,7.81727689 C156.626641,7.81727689 147.550672,16.9302981 147.550672,28.1718677 C147.550672,39.4134372 156.626641,48.5264584 167.822503,48.5264584 C179.018156,48.5264584 188.094333,39.4133316 188.094333,28.1718677 C188.094333,16.9304037 179.018156,7.81727689 167.822503,7.81727689 Z M167.822503,10.4614278 C177.563776,10.4614278 185.460933,18.3907348 185.460933,28.1718677 C185.460933,37.9530006 177.563776,45.8823075 167.822503,45.8823075 C158.081027,45.8823075 150.184072,37.9531129 150.184072,28.1718677 C150.184072,18.3906224 158.081027,10.4614278 167.822503,10.4614278 Z" id="Stroke-27" fill="#2B3175" fill-rule="nonzero" mask="url(#mask-2)"></path>
                    <path d="M88.3624654,51.0774503 C88.1644333,47.7807997 85.4400773,45.1684132 82.1071656,45.1684132 C79.7549842,45.1684132 77.7067664,46.47003 76.634564,48.3943649 C76.4773957,48.382687 76.3192843,48.3747965 76.1592869,48.3747965 C73.124052,48.3747965 70.5848403,50.5001814 69.9325917,53.3489672 C69.8895276,53.3477047 69.8477208,53.3426548 69.8046567,53.3426548 C67.6410773,53.3426548 65.887393,55.1034986 65.887393,57.2759108 C65.887393,59.4480074 67.6410773,61.2091669 69.8046567,61.2091669 L87.8221207,61.2091669 C90.6165738,61.2091669 92.8819982,58.9344938 92.8819982,56.1283166 C92.8819982,53.5058303 90.9029345,51.3482522 88.3624654,51.0774503" id="Fill-29" fill="#AED6F2" mask="url(#mask-2)"></path>
                    <path d="M81.9266535,44.1877405 C79.5853439,44.2457028 77.4577869,45.4285051 76.1545759,47.3129533 L76.1007877,47.3923774 L75.9871267,47.3938856 C72.8958151,47.4655767 70.221133,49.4630108 69.2143408,52.315308 L69.1855477,52.398566 L69.1059796,52.4094165 C66.7327532,52.7498307 64.9084837,54.7988351 64.9084837,57.2759108 C64.9084837,59.9909481 67.1005371,62.1920725 69.8046567,62.1920725 L87.8221207,62.1920725 C91.1572684,62.1920725 93.8609074,59.4772793 93.8609074,56.1283166 L93.8588992,55.9707494 C93.7894189,53.247542 91.9241334,50.9458045 89.3741389,50.2679663 L89.2498985,50.2362264 L89.2421519,50.1878739 C88.6404798,46.7637019 85.6622425,44.1855076 82.1071656,44.1855076 L81.9266535,44.1877405 Z M82.1071656,46.1513189 C84.9072538,46.1513189 87.2175607,48.3437307 87.385332,51.1366276 C87.4141234,51.6159197 87.7835847,52.0041733 88.2591234,52.0548635 C90.3218638,52.2747418 91.903089,54.0286857 91.903089,56.1283166 C91.903089,58.3916106 90.0759763,60.2262612 87.8221207,60.2262612 L69.8046567,60.2262612 C68.1818346,60.2262612 66.8663022,58.9052848 66.8663022,57.2759108 L66.8685257,57.1600519 C66.9276374,55.6226322 68.1581002,54.387146 69.6892688,54.327793 L69.8115933,54.3266133 C69.8453329,54.3289646 69.8719972,54.3305153 69.9040226,54.3314542 C70.370679,54.3451348 70.7820178,54.026029 70.8866154,53.5691844 C71.4469173,51.1219884 73.6253028,49.3577021 76.1592869,49.3577021 C76.2809084,49.3577021 76.4108419,49.3633351 76.5623222,49.3745904 C76.9417633,49.4027837 77.303101,49.2076628 77.4888664,48.8742603 C78.4185017,47.2057976 80.1701139,46.1513189 82.1071656,46.1513189 Z" id="Stroke-31" fill="#2B3175" fill-rule="nonzero" mask="url(#mask-2)"></path>
                    <path d="M75.160325,60.2225684 C75.675217,60.2225684 76.0972618,60.6217175 76.136289,61.1286606 L76.1392342,61.2054741 L76.1392342,66.3551295 C76.1392342,66.8721236 75.741708,67.2958914 75.2368262,67.335078 L75.160325,67.3380352 L71.2898975,67.3380352 C70.7492608,67.3380352 70.3109882,66.8979733 70.3109882,66.3551295 C70.3109882,65.8381354 70.7085144,65.4143676 71.2133963,65.375181 L71.2898975,65.3722238 L74.1813785,65.3720755 L74.1814157,61.2054741 C74.1814157,60.68848 74.5789419,60.2647122 75.0838238,60.2255256 L75.160325,60.2225684 Z" id="Stroke-33" fill="#2B3175" fill-rule="nonzero" mask="url(#mask-2)"></path>
                    <path d="M78.3428267,60.2225684 C78.8577187,60.2225684 79.2797635,60.6217175 79.3187907,61.1286606 L79.3217359,61.2054741 L79.3217359,71.10521 C79.3217359,71.6222041 78.9242097,72.045972 78.4193278,72.0851585 L78.3428267,72.0881157 L74.9024117,72.0881157 C74.3617751,72.0881157 73.9235025,71.6480538 73.9235025,71.10521 C73.9235025,70.5882159 74.3210287,70.1644481 74.8259105,70.1252616 L74.9024117,70.1223044 L77.3635569,70.1220377 L77.3639174,61.2054741 C77.3639174,60.68848 77.7614436,60.2647122 78.2663255,60.2255256 L78.3428267,60.2225684 Z" id="Stroke-35" fill="#2B3175" fill-rule="nonzero" mask="url(#mask-2)"></path>
                    <path d="M81.4393887,60.2225684 C81.9542808,60.2225684 82.3763256,60.6217175 82.4153528,61.1286606 L82.4182979,61.2054741 L82.4182979,73.9552583 C82.4182979,74.4981021 81.9800254,74.938164 81.4393887,74.938164 C80.9244967,74.938164 80.5024518,74.5390149 80.4634247,74.0320718 L80.4604795,73.9552583 L80.4604795,61.2054741 C80.4604795,60.6626303 80.8987521,60.2225684 81.4393887,60.2225684 Z" id="Stroke-37" fill="#2B3175" fill-rule="nonzero" mask="url(#mask-2)"></path>
                    <path d="M84.6218904,60.2225684 C85.1367824,60.2225684 85.5588273,60.6217175 85.5978545,61.1286606 L85.6007996,61.2054741 L85.6004954,67.1857358 L88.406504,67.1860918 C88.921396,67.1860918 89.3434409,67.5852409 89.3824681,68.092184 L89.3854132,68.1689975 C89.3854132,68.6859916 88.9878871,69.1097594 88.4830052,69.1489459 L88.406504,69.1519031 L84.6218904,69.1519031 C84.1069984,69.1519031 83.6849535,68.752754 83.6459264,68.245811 L83.6429812,68.1689975 L83.6429812,61.2054741 C83.6429812,60.6626303 84.0812538,60.2225684 84.6218904,60.2225684 Z" id="Stroke-39" fill="#2B3175" fill-rule="nonzero" mask="url(#mask-2)"></path>
                    <path d="M68.9350442,63.2341826 C67.2722257,63.2341826 65.9242627,64.5876487 65.9242627,66.2572557 C65.9242627,67.9268628 67.2722257,69.2803289 68.9350442,69.2803289 C70.5978628,69.2803289 71.9458258,67.9268628 71.9458258,66.2572557 C71.9458258,64.5876487 70.5978628,63.2341826 68.9350442,63.2341826 Z M68.9350442,65.1999939 C69.5165895,65.1999939 69.9880073,65.6733363 69.9880073,66.2572557 C69.9880073,66.8411752 69.5165895,67.3145176 68.9350442,67.3145176 C68.3534989,67.3145176 67.8820812,66.8411752 67.8820812,66.2572557 C67.8820812,65.6733363 68.3534989,65.1999939 68.9350442,65.1999939 Z" id="Stroke-41" fill="#2B3175" fill-rule="nonzero" mask="url(#mask-2)"></path>
                    <path d="M72.6528927,68.054173 C70.9900741,68.054173 69.6421112,69.407639 69.6421112,71.0772461 C69.6421112,72.7468532 70.9900741,74.1003192 72.6528927,74.1003192 C74.3157113,74.1003192 75.6636742,72.7468532 75.6636742,71.0772461 C75.6636742,69.407639 74.3157113,68.054173 72.6528927,68.054173 Z M72.6528927,70.0199843 C73.234438,70.0199843 73.7058558,70.4933266 73.7058558,71.0772461 C73.7058558,71.6611656 73.234438,72.1345079 72.6528927,72.1345079 C72.0713474,72.1345079 71.5999297,71.6611656 71.5999297,71.0772461 C71.5999297,70.4933266 72.0713474,70.0199843 72.6528927,70.0199843 Z" id="Stroke-43" fill="#2B3175" fill-rule="nonzero" mask="url(#mask-2)"></path>
                    <path d="M81.4432551,73.2381678 C79.7804365,73.2381678 78.4324735,74.5916338 78.4324735,76.2612409 C78.4324735,77.930848 79.7804365,79.2843141 81.4432551,79.2843141 C83.1060736,79.2843141 84.4540366,77.930848 84.4540366,76.2612409 C84.4540366,74.5916338 83.1060736,73.2381678 81.4432551,73.2381678 Z M81.4432551,75.2039791 C82.0248004,75.2039791 82.4962181,75.6773215 82.4962181,76.2612409 C82.4962181,76.8451604 82.0248004,77.3185027 81.4432551,77.3185027 C80.8617098,77.3185027 80.390292,76.8451604 80.390292,76.2612409 C80.390292,75.6773215 80.8617098,75.2039791 81.4432551,75.2039791 Z" id="Stroke-45" fill="#2B3175" fill-rule="nonzero" mask="url(#mask-2)"></path>
                    <path d="M90.6000082,65.0688815 C88.9371896,65.0688815 87.5892267,66.4223475 87.5892267,68.0919546 C87.5892267,69.7615617 88.9371896,71.1150278 90.6000082,71.1150278 C92.2628268,71.1150278 93.6107897,69.7615617 93.6107897,68.0919546 C93.6107897,66.4223475 92.2628268,65.0688815 90.6000082,65.0688815 Z M90.6000082,67.0346928 C91.1815535,67.0346928 91.6529713,67.5080351 91.6529713,68.0919546 C91.6529713,68.6758741 91.1815535,69.1492164 90.6000082,69.1492164 C90.0184629,69.1492164 89.5470452,68.6758741 89.5470452,68.0919546 C89.5470452,67.5080351 90.0184629,67.0346928 90.6000082,67.0346928 Z" id="Stroke-47" fill="#2B3175" fill-rule="nonzero" mask="url(#mask-2)"></path>
                    <path d="M170.258329,19.1330956 L159.408999,19.1330956 C158.946094,19.1330956 158.570835,19.509886 158.570835,19.9746805 L158.570835,40.7210123 C158.570835,41.1858068 158.946094,41.5625972 159.408999,41.5625972 L170.258329,41.5625972 C171.712737,41.5625972 172.899213,40.3714211 172.899213,38.9109318 L172.899213,21.7850767 C172.899213,20.3245728 171.712723,19.1330956 170.258329,19.1330956 Z M160.246994,39.8794274 L160.246994,20.8161509 L170.258329,20.8161509 C170.786868,20.8161509 171.222887,21.2541165 171.222887,21.7850767 L171.222887,38.9109318 C171.222887,39.4417868 170.786973,39.8794274 170.258329,39.8794274 L160.246994,39.8794274 Z" id="Stroke-49" fill="#2B3175" fill-rule="nonzero" mask="url(#mask-2)"></path>
                    <path d="M172.246414,17.0176212 C173.662465,17.0176212 174.824662,18.1471463 174.88485,19.5545784 L174.887298,19.6692867 L174.887298,33.2886039 C174.887298,33.7533984 174.51204,34.1301888 174.049135,34.1301888 C173.611947,34.1301888 173.252938,33.7941011 173.214397,33.3652053 L173.210972,33.2886039 L173.210972,19.6692867 C173.210972,19.1651493 172.817442,18.7448056 172.324955,18.7040316 L172.246414,18.7007911 L161.397084,18.7007911 C160.934179,18.7007911 160.558921,18.3240007 160.558921,17.8592061 C160.558921,17.4202336 160.893642,17.0597585 161.320794,17.0210605 L161.397084,17.0176212 L172.246414,17.0176212 Z" id="Stroke-51" fill="#2B3175" fill-rule="nonzero" mask="url(#mask-2)"></path>
                    <path d="M174.059225,15.0781365 C175.475346,15.0781365 176.637477,16.2077295 176.697661,17.6153904 L176.700109,17.7301176 L176.700109,31.3494348 C176.700109,31.8142293 176.324851,32.1910197 175.861946,32.1910197 C175.424758,32.1910197 175.065749,31.854932 175.027208,31.4260362 L175.023783,31.3494348 L175.023783,17.7301176 C175.023783,17.2257054 174.630276,16.8053242 174.137769,16.7645471 L174.059225,16.7613064 L163.209895,16.7613064 C162.74699,16.7613064 162.371732,16.384516 162.371732,15.9197214 C162.371732,15.4807489 162.706453,15.1202738 163.133605,15.0815758 L163.209895,15.0781365 L174.059225,15.0781365 Z" id="Stroke-53" fill="#2B3175" fill-rule="nonzero" mask="url(#mask-2)"></path>
                    <path d="M165.550949,22.4836225 C166.013853,22.4836225 166.389112,22.8604129 166.389112,23.3252074 C166.389112,23.76418 166.05439,24.1246551 165.627239,24.1633531 L165.550949,24.1667923 L161.43471,24.1667923 C160.971805,24.1667923 160.596547,23.7900019 160.596547,23.3252074 C160.596547,22.8862348 160.931268,22.5257597 161.35842,22.4870618 L161.43471,22.4836225 L165.550949,22.4836225 Z" id="Stroke-55" fill="#AED6F2" fill-rule="nonzero" mask="url(#mask-2)"></path>
                    <path d="M167.338267,24.4577939 C167.801172,24.4577939 168.17643,24.8345843 168.17643,25.2993788 C168.17643,25.7383514 167.841709,26.0988265 167.414557,26.1375244 L167.338267,26.1409637 L161.43471,26.1409637 C160.971805,26.1409637 160.596547,25.7641733 160.596547,25.2993788 C160.596547,24.8604062 160.931268,24.4999311 161.35842,24.4612332 L161.43471,24.4577939 L167.338267,24.4577939 Z" id="Stroke-57" fill="#AED6F2" fill-rule="nonzero" mask="url(#mask-2)"></path>
                    <path d="M169.840387,26.4318074 C170.303292,26.4318074 170.67855,26.8085978 170.67855,27.2733923 C170.67855,27.7123649 170.343829,28.07284 169.916677,28.1115379 L169.840387,28.1149772 L161.43471,28.1149772 C160.971805,28.1149772 160.596547,27.7381868 160.596547,27.2733923 C160.596547,26.8344197 160.931268,26.4739446 161.35842,26.4352467 L161.43471,26.4318074 L169.840387,26.4318074 Z" id="Stroke-59" fill="#AED6F2" fill-rule="nonzero" mask="url(#mask-2)"></path>
                    <path d="M169.840387,28.4059787 C170.303292,28.4059787 170.67855,28.7827691 170.67855,29.2475636 C170.67855,29.6865362 170.343829,30.0470113 169.916677,30.0857093 L169.840387,30.0891485 L161.43471,30.0891485 C160.971805,30.0891485 160.596547,29.7123581 160.596547,29.2475636 C160.596547,28.808591 160.931268,28.4481159 161.35842,28.409418 L161.43471,28.4059787 L169.840387,28.4059787 Z" id="Stroke-61" fill="#AED6F2" fill-rule="nonzero" mask="url(#mask-2)"></path>
                    <path d="M169.840387,30.3801501 C170.303292,30.3801501 170.67855,30.7569405 170.67855,31.221735 C170.67855,31.6607076 170.343829,32.0211827 169.916677,32.0598806 L169.840387,32.0633199 L161.43471,32.0633199 C160.971805,32.0633199 160.596547,31.6865295 160.596547,31.221735 C160.596547,30.7827624 160.931268,30.4222873 161.35842,30.3835894 L161.43471,30.3801501 L169.840387,30.3801501 Z" id="Stroke-63" fill="#AED6F2" fill-rule="nonzero" mask="url(#mask-2)"></path>
                    <path d="M168.053069,32.3541636 C168.515973,32.3541636 168.891232,32.730954 168.891232,33.1957485 C168.891232,33.6347211 168.55651,33.9951962 168.129358,34.0338941 L168.053069,34.0373334 L161.43471,34.0373334 C160.971805,34.0373334 160.596547,33.660543 160.596547,33.1957485 C160.596547,32.7567759 160.931268,32.3963008 161.35842,32.3576029 L161.43471,32.3541636 L168.053069,32.3541636 Z" id="Stroke-65" fill="#AED6F2" fill-rule="nonzero" mask="url(#mask-2)"></path>
                    <path d="M166.26575,34.3283349 C166.728655,34.3283349 167.103913,34.7051253 167.103913,35.1699198 C167.103913,35.6088924 166.769192,35.9693675 166.34204,36.0080655 L166.26575,36.0115047 L161.43471,36.0115047 C160.971805,36.0115047 160.596547,35.6347143 160.596547,35.1699198 C160.596547,34.7309472 160.931268,34.3704721 161.35842,34.3317742 L161.43471,34.3283349 L166.26575,34.3283349 Z" id="Stroke-67" fill="#AED6F2" fill-rule="nonzero" mask="url(#mask-2)"></path>
                    <path d="M169.125585,36.3025063 C169.58849,36.3025063 169.963748,36.6792967 169.963748,37.1440912 C169.963748,37.5830638 169.629027,37.9435389 169.201875,37.9822368 L169.125585,37.9856761 L161.43471,37.9856761 C160.971805,37.9856761 160.596547,37.6088857 160.596547,37.1440912 C160.596547,36.7051186 160.931268,36.3446435 161.35842,36.3059456 L161.43471,36.3025063 L169.125585,36.3025063 Z" id="Stroke-69" fill="#AED6F2" fill-rule="nonzero" mask="url(#mask-2)"></path>
                    <polygon id="Fill-71" fill="#AED6F2" mask="url(#mask-2)" points="133.261216 92.3882219 161.13565 92.3882219 147.131637 104.039017"></polygon>
                    <path d="M161.13565,91.2941087 L133.261216,91.2941087 C132.243086,91.2941087 131.781131,92.5714668 132.56204,93.2274102 L146.432461,104.878206 C146.83563,105.216858 147.422111,105.218246 147.826866,104.881505 L161.830879,93.2307098 C162.616826,92.5768327 162.156335,91.2941087 161.13565,91.2941087 Z M158.112388,93.4819623 L147.134714,102.615245 L136.261745,93.4819623 L158.112388,93.4819623 Z" id="Stroke-73" fill="#2B3175" fill-rule="nonzero" mask="url(#mask-2)"></path>
                    <path d="M159.816486,96.7247387 C160.504913,96.1366662 161.552373,96.598726 161.609769,97.4813527 L161.612222,97.5627325 L161.558156,110.320723 C161.55572,110.895779 161.111778,111.365668 160.549585,111.407197 L160.468502,111.410181 L133.127812,111.410181 C132.552172,111.410181 132.080785,110.961999 132.040883,110.394204 L132.038147,110.316067 L132.038147,103.302676 C132.038147,102.698414 132.526007,102.208563 133.127812,102.208563 C133.703452,102.208563 134.174838,102.656744 134.21474,103.224539 L134.217476,103.302676 L134.217111,109.22166 L159.383575,109.22166 L159.422511,99.9335849 L154.503731,104.136014 C154.068281,104.507987 153.425854,104.476331 153.02836,104.077637 L152.967699,104.011641 C152.597238,103.574413 152.628766,102.929364 153.025838,102.530246 L153.091567,102.469338 L159.816486,96.7247387 Z" id="Stroke-75" fill="#2B3175" fill-rule="nonzero" mask="url(#mask-2)"></path>
                    <line x1="192.122268" y1="103.958124" x2="172.970992" y2="103.958124" id="Fill-77" fill="#FFFFFF" mask="url(#mask-2)"></line>
                    <path d="M192.122268,102.476237 C192.937364,102.476237 193.59813,103.139701 193.59813,103.958124 C193.59813,104.746236 192.985403,105.390653 192.212173,105.437306 L192.122268,105.440011 L172.970992,105.440011 C172.155896,105.440011 171.49513,104.776548 171.49513,103.958124 C171.49513,103.170013 172.107857,102.525595 172.881086,102.478942 L172.970992,102.476237 L192.122268,102.476237 Z" id="Stroke-79" fill="#2B3175" fill-rule="nonzero" mask="url(#mask-2)"></path>
                    <line x1="213.562859" y1="63.6723282" x2="108.63759" y2="63.6723282" id="Fill-81" fill="#FFFFFF" mask="url(#mask-2)"></line>
                    <path d="M213.562859,62.1904414 C214.377954,62.1904414 215.03872,62.8539047 215.03872,63.6723282 C215.03872,64.4604397 214.425994,65.104857 213.652764,65.1515105 L213.562859,65.154215 L108.63759,65.154215 C107.822494,65.154215 107.161728,64.4907517 107.161728,63.6723282 C107.161728,62.8842167 107.774455,62.2397994 108.547684,62.1931459 L108.63759,62.1904414 L213.562859,62.1904414 Z" id="Stroke-83" fill="#2B3175" fill-rule="nonzero" mask="url(#mask-2)"></path>
                    <line x1="160.663893" y1="59.2461053" x2="108.637401" y2="59.2461053" id="Fill-85" fill="#FFFFFF" mask="url(#mask-2)"></line>
                    <path d="M160.663893,57.7642186 C161.478989,57.7642186 162.139755,58.4276819 162.139755,59.2461053 C162.139755,60.0342168 161.527028,60.6786341 160.753799,60.7252877 L160.663893,60.7279921 L108.637401,60.7279921 C107.822305,60.7279921 107.16154,60.0645288 107.16154,59.2461053 C107.16154,58.4579938 107.774266,57.8135765 108.547496,57.766923 L108.637401,57.7642186 L160.663893,57.7642186 Z" id="Stroke-87" fill="#AED6F2" fill-rule="nonzero" opacity="0.287109375" mask="url(#mask-2)"></path>
                    <line x1="192.856716" y1="99.8790831" x2="184.283183" y2="99.8790831" id="Fill-89" fill="#FFFFFF" mask="url(#mask-2)"></line>
                    <path d="M192.856716,98.3971963 C193.671812,98.3971963 194.332577,99.0606596 194.332577,99.8790831 C194.332577,100.667195 193.719851,101.311612 192.946621,101.358265 L192.856716,101.36097 L184.283183,101.36097 C183.468087,101.36097 182.807321,100.697507 182.807321,99.8790831 C182.807321,99.0909716 183.420048,98.4465543 184.193277,98.3999008 L184.283183,98.3971963 L192.856716,98.3971963 Z" id="Stroke-91" fill="#AED6F2" fill-rule="nonzero" opacity="0.287109375" mask="url(#mask-2)"></path>
                    <line x1="168.079819" y1="63.0400152" x2="168.079819" y2="52.2372905" id="Fill-93" fill="#FFFFFF" mask="url(#mask-2)"></line>
                    <path d="M168.079819,50.7554037 C168.864726,50.7554037 169.506523,51.3706317 169.552987,52.1470181 L169.55568,52.2372905 L169.55568,63.0400152 C169.55568,63.8584386 168.894914,64.521902 168.079819,64.521902 C167.294912,64.521902 166.653114,63.906674 166.606651,63.1302876 L166.603957,63.0400152 L166.603957,52.2372905 C166.603957,51.4188671 167.264723,50.7554037 168.079819,50.7554037 Z" id="Stroke-95" fill="#2B3175" fill-rule="nonzero" mask="url(#mask-2)"></path>
                    <line x1="147.297984" y1="75.0540892" x2="147.297984" y2="64.2513646" id="Fill-97" fill="#FFFFFF" mask="url(#mask-2)"></line>
                    <path d="M147.297984,62.7694778 C148.082891,62.7694778 148.724688,63.3847058 148.771152,64.1610922 L148.773845,64.2513646 L148.773845,75.0540892 C148.773845,75.8725127 148.113079,76.535976 147.297984,76.535976 C146.513076,76.535976 145.871279,75.920748 145.824815,75.1443617 L145.822122,75.0540892 L145.822122,64.2513646 C145.822122,63.4329411 146.482888,62.7694778 147.297984,62.7694778 Z" id="Stroke-99" fill="#2B3175" fill-rule="nonzero" mask="url(#mask-2)"></path>
                </g>
            </g>
        </g>
    </g>
</svg>